# xmcd
#
# Track frame offsets: 
#        150
#        21939
#        48089
#        78581
#        115653
#        142175
#        161134
#        189462
#        208569
#        226576
#        251810
#        276567
#
# Disc length: 4052 seconds
#
# Revision: 0
# Processed by: cddbd v1.5.2PL0 Copyright (c) Steve Scherf et al.
# Submitted via: ExactAudioCopyFreeDBPlugin 1.0
#
DISCID=a80fd20c
DTITLE=New Boyz Brass Band - A Night At The Infirmary
DYEAR=2012
DGENRE=New Orleans Brass Band
TTITLE0=A. P Toureud
TTITLE1=Fire
TTITLE2=Holla At My Dawg
TTITLE3=Just My Imagination
TTITLE4=Keep The Dream Alive
TTITLE5=I'll Be Missing You
TTITLE6=Shake Your Body Down
TTITLE7=Snowball
TTITLE8=St. James Infirmary
TTITLE9=Talking
TTITLE10=Tornado
TTITLE11=Who Dat Call Da Police
EXTD=
EXTT0=
EXTT1=
EXTT2=
EXTT3=
EXTT4=
EXTT5=
EXTT6=
EXTT7=
EXTT8=
EXTT9=
EXTT10=
EXTT11=
PLAYORDER=
